<svg width="1024" height="1024" viewBox="0 0 1024 1024" fill="none" xmlns="http://www.w3.org/2000/svg">
<g clip-path="url(#clip0_52_168)">
<ellipse cx="512" cy="1105" rx="1091" ry="642" fill="#008EEC"/>
<path d="M528.623 658.759H613.615V680.744H528.623V658.759ZM532.707 613L556.443 616.579C552.53 638.734 547.17 659.526 540.364 678.955C533.558 698.383 525.305 714.659 515.607 727.782C514.245 726.589 512.289 725.14 509.736 723.436C507.184 721.561 504.547 719.857 501.824 718.323C499.272 716.619 496.975 715.256 494.933 714.233C504.802 702.474 512.799 687.647 518.925 669.752C525.05 651.857 529.644 632.94 532.707 613ZM566.142 667.451H577.883V710.91C577.883 715.511 578.308 721.476 579.159 728.805C580.18 736.133 581.796 744.228 584.008 753.09C586.39 761.952 589.708 771.07 593.962 780.444C598.216 789.647 603.661 798.509 610.297 807.03C616.933 815.551 624.93 823.135 634.289 829.782C632.927 831.486 631.311 833.617 629.439 836.173C627.568 838.729 625.696 841.286 623.824 843.842C622.123 846.569 620.591 848.955 619.23 851C612.084 846.058 605.703 840.263 600.088 833.617C594.473 827.14 589.623 820.409 585.54 813.421C581.626 806.263 578.308 799.19 575.586 792.203C572.863 785.045 570.736 778.399 569.205 772.263C567.674 766.128 566.653 760.93 566.142 756.669C565.291 761.952 563.59 768.599 561.038 776.609C558.485 784.619 554.827 793.14 550.063 802.173C545.468 811.035 539.598 819.727 532.452 828.248C525.475 836.769 516.968 844.268 506.929 850.744C505.908 849.04 504.547 846.91 502.845 844.353C501.144 841.797 499.357 839.241 497.485 836.684C495.784 834.298 494.167 832.338 492.636 830.805C503.015 824.158 511.863 816.574 519.18 808.053C526.496 799.531 532.367 790.584 536.791 781.211C541.385 771.837 544.958 762.719 547.51 753.857C550.063 744.825 551.764 736.644 552.615 729.316C553.636 721.817 554.146 715.682 554.146 710.91V667.451H566.142ZM607.745 658.759H611.573L615.146 657.737L631.481 662.083C629.95 669.922 628.163 678.018 626.121 686.368C624.079 694.719 621.782 702.729 619.23 710.398C616.848 717.897 614.381 724.544 611.828 730.338L592.686 723.692C594.728 718.579 596.685 712.614 598.556 705.797C600.428 698.81 602.13 691.566 603.661 684.068C605.362 676.569 606.724 669.496 607.745 662.85V658.759ZM446.694 659.015H468.134V688.925H446.694V659.015ZM413.77 681H435.464V824.158H413.77V681ZM427.042 714.744H488.297V731.361H427.042V714.744ZM395.393 818.278C402.88 816.574 411.388 814.444 420.916 811.887C430.615 809.331 440.824 806.519 451.544 803.451C462.263 800.383 472.983 797.316 483.703 794.248L486.51 813.677C472.047 818.449 457.584 823.221 443.121 827.992C428.658 832.764 415.471 837.025 403.561 840.774L395.393 818.278ZM460.477 776.865L480.13 769.707C483.192 775.16 486.255 781.04 489.318 787.346C492.381 793.652 495.103 799.787 497.485 805.752C500.038 811.717 501.909 817 503.1 821.601L482.427 830.293C481.236 825.521 479.449 820.068 477.067 813.932C474.685 807.797 472.047 801.491 469.155 795.015C466.262 788.539 463.369 782.489 460.477 776.865ZM427.042 681H499.017V766.128H427.042V748.744H477.577V698.128H427.042V681ZM442.1 613.256H455.117V618.113H462.263V624.504C458.52 630.98 453.926 638.138 448.481 645.977C443.206 653.647 436.911 661.486 429.594 669.496C422.277 677.506 413.94 685.175 404.581 692.504C403.561 690.629 402.199 688.669 400.498 686.624C398.966 684.579 397.265 682.619 395.393 680.744C393.521 678.699 391.82 677.08 390.289 675.887C402.88 666.855 413.429 656.714 421.937 645.466C430.615 634.048 437.336 623.311 442.1 613.256ZM448.481 613.256H465.326C470.431 617.687 475.706 622.714 481.151 628.338C486.766 633.792 492.04 639.246 496.975 644.699C502.079 649.982 506.248 654.754 509.481 659.015L492.636 674.865C489.743 670.774 486.085 666.003 481.661 660.549C477.237 654.925 472.388 649.386 467.113 643.932C462.008 638.308 457.074 633.366 452.309 629.105H448.481V613.256Z" fill="#0035EC"/>
</g>
<defs>
<clipPath id="clip0_52_168">
<rect width="1024" height="1024" fill="white"/>
</clipPath>
</defs>
</svg>
