<svg width="383" height="254" viewBox="0 0 383 254" fill="none" xmlns="http://www.w3.org/2000/svg">
<path d="M250.889 253.995V55.7551H278.297V79.1272H280.644C282.271 76.1235 284.618 72.6506 287.684 68.7083C290.75 64.766 295.005 61.3243 300.449 58.3833C305.893 55.3796 313.09 53.8778 322.038 53.8778C333.677 53.8778 344.065 56.8189 353.201 62.701C362.337 68.5831 369.502 77.0622 374.695 88.1381C379.952 99.214 382.58 112.543 382.58 128.124C382.58 143.705 379.983 157.065 374.789 168.204C369.596 179.28 362.462 187.821 353.388 193.829C344.315 199.773 333.959 202.746 322.32 202.746C313.559 202.746 306.394 201.275 300.825 198.334C295.318 195.393 291 191.951 287.871 188.009C284.743 184.067 282.334 180.563 280.644 177.496H278.954V253.995H250.889ZM278.391 127.842C278.391 137.98 279.862 146.866 282.803 154.5C285.744 162.134 289.999 168.11 295.568 172.428C301.138 176.683 307.958 178.811 316.031 178.811C324.416 178.811 331.424 176.589 337.056 172.146C342.688 167.641 346.943 161.54 349.822 153.843C352.763 146.146 354.233 137.479 354.233 127.842C354.233 118.331 352.794 109.789 349.915 102.218C347.1 94.646 342.844 88.67 337.15 84.2897C331.518 79.9094 324.478 77.7192 316.031 77.7192C307.896 77.7192 301.012 79.8155 295.381 84.0081C289.811 88.2007 285.587 94.0515 282.709 101.561C279.83 109.07 278.391 117.83 278.391 127.842Z" fill="#1A1A1A"/>
<path d="M180.259 199.93V55.7551H208.325V199.93H180.259ZM194.433 33.5094C189.552 33.5094 185.359 31.8824 181.855 28.6284C178.413 25.3119 176.693 21.3697 176.693 16.8016C176.693 12.171 178.413 8.22872 181.855 4.97477C185.359 1.65826 189.552 0 194.433 0C199.314 0 203.475 1.65826 206.917 4.97477C210.421 8.22872 212.173 12.171 212.173 16.8016C212.173 21.3697 210.421 25.3119 206.917 28.6284C203.475 31.8824 199.314 33.5094 194.433 33.5094Z" fill="#1A1A1A"/>
<path d="M112.449 58.1955C111.448 49.3097 107.318 42.4264 100.059 37.5455C92.8 32.602 83.6639 30.1302 72.6506 30.1302C64.766 30.1302 57.9452 31.3818 52.1883 33.8848C46.4313 36.3252 41.9571 39.7043 38.7657 44.0221C35.6369 48.2772 34.0726 53.1269 34.0726 58.571C34.0726 63.139 35.1363 67.0813 37.2639 70.3978C39.4541 73.7143 42.3013 76.4989 45.8055 78.7517C49.3723 80.9418 53.1895 82.7878 57.2569 84.2896C61.3243 85.7289 65.2353 86.9178 68.9899 87.8565L87.7626 92.7374C93.8951 94.2392 100.184 96.2729 106.629 98.8385C113.075 101.404 119.051 104.783 124.557 108.976C130.064 113.168 134.507 118.362 137.886 124.557C141.328 130.752 143.048 138.167 143.048 146.803C143.048 157.691 140.232 167.359 134.601 175.807C129.031 184.255 120.928 190.919 110.29 195.8C99.7146 200.681 86.9179 203.121 71.8997 203.121C57.5072 203.121 45.0546 200.837 34.5419 196.269C24.0291 191.701 15.8004 185.224 9.8557 176.839C3.91099 168.392 0.625758 158.379 0 146.803H29.0978C29.661 153.749 31.9137 159.537 35.856 164.168C39.8608 168.736 44.9607 172.146 51.1558 174.399C57.4133 176.589 64.2654 177.684 71.7119 177.684C79.9094 177.684 87.1995 176.401 93.5822 173.836C100.028 171.208 105.096 167.578 108.788 162.947C112.48 158.254 114.326 152.779 114.326 146.521C114.326 140.827 112.699 136.165 109.445 132.536C106.254 128.906 101.905 125.903 96.3981 123.525C90.954 121.147 84.7903 119.051 77.9069 117.236L55.1919 111.041C39.7982 106.848 27.5959 100.685 18.585 92.5497C9.63668 84.4148 5.16251 73.6517 5.16251 60.2605C5.16251 49.1846 8.16615 39.5166 14.1734 31.2566C20.1807 22.9966 28.3156 16.5826 38.578 12.0145C48.8405 7.38391 60.417 5.0686 73.3076 5.0686C86.3234 5.0686 97.8061 7.35263 107.756 11.9207C117.768 16.4887 125.652 22.7776 131.409 30.7873C137.166 38.7344 140.17 47.8705 140.42 58.1955H112.449Z" fill="#1A1A1A"/>
</svg>
